<svg xmlns="http://www.w3.org/2000/svg" viewBox="0 0 512 512">
  <defs>
    <linearGradient id="bg" x1="0" y1="0" x2="0" y2="1">
      <stop offset="0%" stop-color="#FFE9C8"/>
      <stop offset="100%" stop-color="#FFB35C"/>
    </linearGradient>
    <radialGradient id="cookie" cx="0.34" cy="0.3" r="0.9">
      <stop offset="0%" stop-color="#F8DAA5"/>
      <stop offset="55%" stop-color="#E1A461"/>
      <stop offset="100%" stop-color="#A26525"/>
    </radialGradient>
  </defs>

  <!-- 배경 -->
  <rect width="512" height="512" fill="url(#bg)"/>
  <circle cx="60" cy="420" r="10" fill="#FFFFFF" opacity="0.25"/>
  <circle cx="452" cy="80" r="8" fill="#FFFFFF" opacity="0.3"/>
  <circle cx="448" cy="432" r="12" fill="#FFFFFF" opacity="0.22"/>
  <circle cx="70" cy="80" r="9" fill="#FFFFFF" opacity="0.3"/>

  <!-- 반짝이 -->
  <path d="M 118 100 C 122 118, 126 122, 144 126 C 126 130, 122 134, 118 152 C 114 134, 110 130, 92 126 C 110 122, 114 118, 118 100 Z" fill="#FFFFFF" opacity="0.9"/>
  <path d="M 402 146 C 404.5 157, 407 159.5, 418 162 C 407 164.5, 404.5 167, 402 178 C 399.5 167, 397 164.5, 386 162 C 397 159.5, 399.5 157, 402 146 Z" fill="#FFF3BF" opacity="0.95"/>

  <!-- 쿠키 -->
  <circle cx="256" cy="272" r="150" fill="url(#cookie)" stroke="#8B5A28" stroke-width="9"/>

  <!-- 초코칩 (얼굴 주변 가장자리) -->
  <circle cx="186" cy="188" r="20" fill="#3A1E10"/>
  <circle cx="326" cy="196" r="16" fill="#3A1E10"/>
  <circle cx="350" cy="306" r="15" fill="#3A1E10"/>
  <circle cx="168" cy="318" r="16" fill="#3A1E10"/>
  <circle cx="256" cy="168" r="13" fill="#3A1E10"/>
  <circle cx="300" cy="382" r="13" fill="#3A1E10"/>

  <!-- 윤기 -->
  <ellipse cx="204" cy="170" rx="34" ry="13" fill="#FFFFFF" opacity="0.4" transform="rotate(-22 204 170)"/>

  <!-- 얼굴 -->
  <circle cx="222" cy="266" r="11" fill="#3A1E10"/>
  <circle cx="290" cy="266" r="11" fill="#3A1E10"/>
  <circle cx="225.5" cy="262" r="3.5" fill="#FFFFFF" opacity="0.85"/>
  <circle cx="293.5" cy="262" r="3.5" fill="#FFFFFF" opacity="0.85"/>
  <path d="M 232 300 Q 256 322 280 300" stroke="#3A1E10" stroke-width="9" stroke-linecap="round" fill="none"/>
  <ellipse cx="196" cy="298" rx="14" ry="9" fill="#E8590C" opacity="0.35"/>
  <ellipse cx="316" cy="298" rx="14" ry="9" fill="#E8590C" opacity="0.35"/>
</svg>
